<svg width="51" height="50" viewBox="0 0 51 50" fill="none" xmlns="http://www.w3.org/2000/svg">
<g clip-path="url(#clip0)">
<path d="M40.9439 15.2142C37.2501 12.3524 32.018 13.1447 27.8733 14.1548C27.2066 14.3177 26.5228 14.3967 25.8375 14.426C25.7287 13.887 25.5931 13.3465 25.4273 12.8101L28.6306 12.3402C32.7335 11.739 35.9016 8.61931 36.5125 4.57916L36.9851 1.45264C37.0262 1.34392 37.0417 1.23062 37.0359 1.1158L37.2036 0L32.5533 0.681687C28.4505 1.28403 25.2824 4.40254 24.6715 8.44307L24.3929 10.2871C23.4423 8.49037 22.0748 6.91834 20.1886 5.92728C19.769 5.70679 19.2511 5.86395 19.0272 6.27518C18.804 6.68755 18.9625 7.19872 19.3805 7.41844C21.9992 8.79326 23.4438 11.5753 24.0753 14.3711C23.6747 14.3215 23.2776 14.2521 22.8856 14.156C18.7405 13.1454 13.5068 12.3524 9.81459 15.2153C6.50704 17.7788 4.91796 22.8531 4.95941 30.7274C4.98962 36.5452 8.3917 43.2564 13.2333 47.0482C16.4305 49.5529 19.8686 50.4913 23.1703 49.7574C24.6165 49.4362 26.142 49.4362 27.5874 49.7574C28.3184 49.9195 29.0544 49.9996 29.7928 49.9996C32.3972 49.9996 35.0334 48.9994 37.5244 47.0482C42.366 43.2556 45.7673 36.5444 45.7983 30.7274C45.8401 22.8519 44.2518 17.778 40.9439 15.2142ZM28.3773 10.6689L27.6249 10.7796L34.9261 3.59001L34.8138 4.33083C34.3164 7.63016 31.729 10.178 28.3773 10.6689ZM32.8063 2.35329L33.9224 2.18964L26.2028 9.79119L26.3694 8.69141C26.8676 5.39208 29.455 2.845 32.8063 2.35329ZM36.4571 45.726C34.5221 47.2431 31.4803 48.8907 27.9655 48.1083C27.1198 47.921 26.2497 47.8272 25.3792 47.8272C24.5095 47.8272 23.6395 47.921 22.7938 48.1083C19.2859 48.8888 16.2372 47.2435 14.3021 45.726C9.91067 42.2855 6.70345 35.9749 6.67594 30.7182C6.6372 23.3986 8.01167 18.7618 10.876 16.5421C13.3019 14.6626 16.8806 14.4329 22.4746 15.7951C23.0959 15.9466 23.7297 16.0301 24.367 16.0824C24.4158 16.515 24.4483 16.9415 24.4623 17.3557C24.4766 17.8123 24.8578 18.1732 25.3184 18.1732H25.3459C25.8201 18.158 26.1908 17.7685 26.1761 17.3023C26.1633 16.9113 26.1323 16.5081 26.0905 16.1011C26.8292 16.0587 27.5649 15.971 28.2847 15.7963C33.8786 14.4344 37.4566 14.6645 39.8836 16.5428C42.7487 18.763 44.122 23.4005 44.0837 30.7198C44.057 35.9737 40.8486 42.2855 36.4571 45.726Z" fill="white"/>
<path d="M16.9689 17.0532C12.7119 17.0532 9.2486 20.8427 9.2486 25.5001C9.2486 25.9666 9.63211 26.345 10.1063 26.345C10.5808 26.345 10.9644 25.9666 10.9644 25.5001C10.9644 21.7743 13.6587 18.7423 16.9689 18.7423C17.4435 18.7423 17.827 18.3639 17.827 17.8978C17.827 17.4316 17.4435 17.0532 16.9689 17.0532Z" fill="white"/>
<path d="M27.8458 17.3008C27.1492 17.9867 26.2245 18.3643 25.2421 18.3643C24.2601 18.3643 23.3334 17.9867 22.6377 17.3008C22.3022 16.9704 21.7602 16.9704 21.4247 17.3008C21.0897 17.6311 21.0893 18.1656 21.4247 18.4952C22.4447 19.4992 23.8018 20.0535 25.2421 20.0535C26.6824 20.0535 28.0387 19.5003 29.0587 18.4952C29.3942 18.1648 29.3942 17.63 29.0587 17.3008C28.7232 16.9704 28.1809 16.9704 27.8458 17.3008Z" fill="white"/>
</g>
<defs>
<clipPath id="clip0">
<rect width="50.7763" height="50" fill="white"/>
</clipPath>
</defs>
</svg>
